<mxfile host="app.diagrams.net" modified="2021-02-02T17:23:57.924Z" agent="5.0 (Windows NT 10.0; Win64; x64) AppleWebKit/537.36 (KHTML, like Gecko) Chrome/88.0.4324.96 Safari/537.36 Edg/88.0.705.56" etag="EDHk_iXScwdWd6nunlh-" version="14.2.9" type="github">
  <diagram name="Page-1" id="197159a0-c6a4-9194-75a8-e4174976684c">
    <mxGraphModel dx="1102" dy="614" grid="1" gridSize="10" guides="1" tooltips="1" connect="1" arrows="1" fold="1" page="1" pageScale="1.5" pageWidth="1100" pageHeight="850" background="none" math="0" shadow="0">
      <root>
        <mxCell id="0" style=";html=1;" />
        <mxCell id="1" style=";html=1;" parent="0" />
        <mxCell id="wH-n1kbzoVB-5Ipiic9I-29" style="edgeStyle=none;shape=link;rounded=0;orthogonalLoop=1;jettySize=auto;html=1;" edge="1" parent="1" source="wH-n1kbzoVB-5Ipiic9I-2" target="wH-n1kbzoVB-5Ipiic9I-1">
          <mxGeometry relative="1" as="geometry" />
        </mxCell>
        <mxCell id="wH-n1kbzoVB-5Ipiic9I-30" style="edgeStyle=none;shape=link;rounded=0;orthogonalLoop=1;jettySize=auto;html=1;" edge="1" parent="1" source="wH-n1kbzoVB-5Ipiic9I-2" target="wH-n1kbzoVB-5Ipiic9I-3">
          <mxGeometry relative="1" as="geometry" />
        </mxCell>
        <mxCell id="wH-n1kbzoVB-5Ipiic9I-40" style="edgeStyle=none;rounded=0;orthogonalLoop=1;jettySize=auto;html=1;endArrow=none;endFill=0;" edge="1" parent="1" source="wH-n1kbzoVB-5Ipiic9I-2" target="wH-n1kbzoVB-5Ipiic9I-72">
          <mxGeometry relative="1" as="geometry">
            <mxPoint x="890" y="627.0981308411217" as="targetPoint" />
          </mxGeometry>
        </mxCell>
        <mxCell id="wH-n1kbzoVB-5Ipiic9I-49" style="edgeStyle=none;rounded=0;orthogonalLoop=1;jettySize=auto;html=1;endArrow=none;endFill=0;" edge="1" parent="1" source="wH-n1kbzoVB-5Ipiic9I-2" target="wH-n1kbzoVB-5Ipiic9I-12">
          <mxGeometry relative="1" as="geometry" />
        </mxCell>
        <mxCell id="wH-n1kbzoVB-5Ipiic9I-31" style="edgeStyle=none;shape=link;rounded=0;orthogonalLoop=1;jettySize=auto;html=1;" edge="1" parent="1" source="wH-n1kbzoVB-5Ipiic9I-3" target="wH-n1kbzoVB-5Ipiic9I-1">
          <mxGeometry relative="1" as="geometry" />
        </mxCell>
        <mxCell id="wH-n1kbzoVB-5Ipiic9I-20" value="" style="group" vertex="1" connectable="0" parent="1">
          <mxGeometry x="789" y="60" width="130" height="110" as="geometry" />
        </mxCell>
        <mxCell id="wH-n1kbzoVB-5Ipiic9I-4" value="" style="pointerEvents=1;shadow=0;dashed=0;html=1;strokeColor=none;fillColor=#505050;labelPosition=center;verticalLabelPosition=bottom;outlineConnect=0;verticalAlign=top;align=center;shape=mxgraph.office.clouds.cloud;" vertex="1" parent="wH-n1kbzoVB-5Ipiic9I-20">
          <mxGeometry y="38.82352941176471" width="130" height="71.1764705882353" as="geometry" />
        </mxCell>
        <mxCell id="wH-n1kbzoVB-5Ipiic9I-7" value="" style="pointerEvents=1;shadow=0;dashed=0;html=1;strokeColor=none;fillColor=#505050;labelPosition=center;verticalLabelPosition=bottom;verticalAlign=top;outlineConnect=0;align=center;shape=mxgraph.office.concepts.globe_internet;" vertex="1" parent="wH-n1kbzoVB-5Ipiic9I-20">
          <mxGeometry width="67.76595744680851" height="63.411764705882355" as="geometry" />
        </mxCell>
        <mxCell id="wH-n1kbzoVB-5Ipiic9I-21" value="AT&amp;amp;T" style="text;html=1;resizable=0;autosize=1;align=center;verticalAlign=middle;points=[];fillColor=none;strokeColor=none;rounded=0;" vertex="1" parent="wH-n1kbzoVB-5Ipiic9I-20">
          <mxGeometry x="39.99553191489362" y="70.00176470588235" width="50" height="20" as="geometry" />
        </mxCell>
        <mxCell id="wH-n1kbzoVB-5Ipiic9I-22" value="" style="group" vertex="1" connectable="0" parent="1">
          <mxGeometry x="1030" y="120" width="80" height="70" as="geometry" />
        </mxCell>
        <mxCell id="wH-n1kbzoVB-5Ipiic9I-13" value="" style="pointerEvents=1;shadow=0;dashed=0;html=1;strokeColor=none;fillColor=#505050;labelPosition=center;verticalLabelPosition=bottom;verticalAlign=top;outlineConnect=0;align=center;shape=mxgraph.office.communications.voip_gateway;" vertex="1" parent="wH-n1kbzoVB-5Ipiic9I-22">
          <mxGeometry x="9" y="50" width="71" height="20" as="geometry" />
        </mxCell>
        <mxCell id="wH-n1kbzoVB-5Ipiic9I-19" value="AT&amp;amp;T&lt;br&gt;Edge Router&lt;br&gt;SIP Trunk" style="text;html=1;resizable=0;autosize=1;align=center;verticalAlign=middle;points=[];fillColor=none;strokeColor=none;rounded=0;" vertex="1" parent="wH-n1kbzoVB-5Ipiic9I-22">
          <mxGeometry width="80" height="50" as="geometry" />
        </mxCell>
        <mxCell id="wH-n1kbzoVB-5Ipiic9I-24" style="edgeStyle=none;rounded=0;orthogonalLoop=1;jettySize=auto;html=1;endArrow=none;endFill=0;" edge="1" parent="1" source="wH-n1kbzoVB-5Ipiic9I-78" target="wH-n1kbzoVB-5Ipiic9I-2">
          <mxGeometry relative="1" as="geometry">
            <mxPoint x="767.2560975609754" y="420" as="sourcePoint" />
          </mxGeometry>
        </mxCell>
        <mxCell id="wH-n1kbzoVB-5Ipiic9I-50" style="edgeStyle=none;rounded=0;orthogonalLoop=1;jettySize=auto;html=1;entryX=0.98;entryY=0.5;entryDx=0;entryDy=0;entryPerimeter=0;endArrow=none;endFill=0;" edge="1" parent="1" source="wH-n1kbzoVB-5Ipiic9I-51" target="wH-n1kbzoVB-5Ipiic9I-2">
          <mxGeometry relative="1" as="geometry">
            <mxPoint x="1117" y="464.3399252482427" as="sourcePoint" />
          </mxGeometry>
        </mxCell>
        <mxCell id="wH-n1kbzoVB-5Ipiic9I-53" value="" style="group" vertex="1" connectable="0" parent="1">
          <mxGeometry x="1220" y="470" width="110" height="84" as="geometry" />
        </mxCell>
        <mxCell id="wH-n1kbzoVB-5Ipiic9I-51" value="" style="shape=mxgraph.cisco.switches.softswitch_pgw_mgc;html=1;pointerEvents=1;dashed=0;fillColor=#036897;strokeColor=#ffffff;strokeWidth=2;verticalLabelPosition=bottom;verticalAlign=top;align=center;outlineConnect=0;" vertex="1" parent="wH-n1kbzoVB-5Ipiic9I-53">
          <mxGeometry x="27" width="56" height="64" as="geometry" />
        </mxCell>
        <mxCell id="wH-n1kbzoVB-5Ipiic9I-52" value="Sangoma IP-PBX" style="text;html=1;resizable=0;autosize=1;align=center;verticalAlign=middle;points=[];fillColor=none;strokeColor=none;rounded=0;" vertex="1" parent="wH-n1kbzoVB-5Ipiic9I-53">
          <mxGeometry y="64" width="110" height="20" as="geometry" />
        </mxCell>
        <mxCell id="wH-n1kbzoVB-5Ipiic9I-55" value="" style="group" vertex="1" connectable="0" parent="1">
          <mxGeometry x="430" y="571.5" width="100" height="78.5" as="geometry" />
        </mxCell>
        <mxCell id="wH-n1kbzoVB-5Ipiic9I-12" value="" style="pointerEvents=1;shadow=0;dashed=0;html=1;strokeColor=none;fillColor=#505050;labelPosition=center;verticalLabelPosition=bottom;verticalAlign=top;outlineConnect=0;align=center;shape=mxgraph.office.servers.database_server;" vertex="1" parent="wH-n1kbzoVB-5Ipiic9I-55">
          <mxGeometry x="57" width="43" height="56" as="geometry" />
        </mxCell>
        <mxCell id="wH-n1kbzoVB-5Ipiic9I-54" value="PowerChurch" style="text;html=1;resizable=0;autosize=1;align=center;verticalAlign=middle;points=[];fillColor=none;strokeColor=none;rounded=0;" vertex="1" parent="wH-n1kbzoVB-5Ipiic9I-55">
          <mxGeometry y="58.5" width="90" height="20" as="geometry" />
        </mxCell>
        <mxCell id="wH-n1kbzoVB-5Ipiic9I-60" value="" style="html=1;outlineConnect=0;fillColor=#CCCCCC;strokeColor=#6881B3;gradientColor=none;gradientDirection=north;strokeWidth=2;shape=mxgraph.networks.comm_link_edge;html=1;endArrow=none;endFill=0;" edge="1" parent="1" source="wH-n1kbzoVB-5Ipiic9I-78" target="wH-n1kbzoVB-5Ipiic9I-4">
          <mxGeometry width="100" height="100" relative="1" as="geometry">
            <mxPoint x="751.2262059973923" y="340" as="sourcePoint" />
            <mxPoint x="724" y="190" as="targetPoint" />
          </mxGeometry>
        </mxCell>
        <mxCell id="wH-n1kbzoVB-5Ipiic9I-62" value="" style="html=1;outlineConnect=0;fillColor=#CCCCCC;strokeColor=#6881B3;gradientColor=none;gradientDirection=north;strokeWidth=2;shape=mxgraph.networks.comm_link_edge;html=1;endArrow=none;endFill=0;" edge="1" parent="1" source="wH-n1kbzoVB-5Ipiic9I-13" target="wH-n1kbzoVB-5Ipiic9I-4">
          <mxGeometry width="100" height="100" relative="1" as="geometry">
            <mxPoint x="940" y="270" as="sourcePoint" />
            <mxPoint x="1040" y="170" as="targetPoint" />
          </mxGeometry>
        </mxCell>
        <mxCell id="wH-n1kbzoVB-5Ipiic9I-63" value="50Mbps" style="text;html=1;resizable=0;autosize=1;align=center;verticalAlign=middle;points=[];fillColor=none;strokeColor=none;rounded=0;" vertex="1" parent="1">
          <mxGeometry x="755" y="210" width="60" height="20" as="geometry" />
        </mxCell>
        <mxCell id="wH-n1kbzoVB-5Ipiic9I-64" value="" style="group" vertex="1" connectable="0" parent="1">
          <mxGeometry x="1020" y="870" width="180" height="50" as="geometry" />
        </mxCell>
        <mxCell id="wH-n1kbzoVB-5Ipiic9I-3" value="" style="shape=mxgraph.cisco.switches.workgroup_switch;html=1;pointerEvents=1;dashed=0;fillColor=#036897;strokeColor=#ffffff;strokeWidth=2;verticalLabelPosition=bottom;verticalAlign=top;align=center;outlineConnect=0;" vertex="1" parent="wH-n1kbzoVB-5Ipiic9I-64">
          <mxGeometry width="101" height="50" as="geometry" />
        </mxCell>
        <mxCell id="wH-n1kbzoVB-5Ipiic9I-27" value="IEMS-Audio" style="text;html=1;resizable=0;autosize=1;align=center;verticalAlign=middle;points=[];fillColor=none;strokeColor=none;rounded=0;" vertex="1" parent="wH-n1kbzoVB-5Ipiic9I-64">
          <mxGeometry x="100" y="20" width="80" height="20" as="geometry" />
        </mxCell>
        <mxCell id="wH-n1kbzoVB-5Ipiic9I-65" value="" style="group" vertex="1" connectable="0" parent="1">
          <mxGeometry x="405" y="870" width="206" height="50" as="geometry" />
        </mxCell>
        <mxCell id="wH-n1kbzoVB-5Ipiic9I-1" value="" style="shape=mxgraph.cisco.switches.workgroup_switch;html=1;pointerEvents=1;dashed=0;fillColor=#036897;strokeColor=#ffffff;strokeWidth=2;verticalLabelPosition=bottom;verticalAlign=top;align=center;outlineConnect=0;" vertex="1" parent="wH-n1kbzoVB-5Ipiic9I-65">
          <mxGeometry x="105" width="101" height="50" as="geometry" />
        </mxCell>
        <mxCell id="wH-n1kbzoVB-5Ipiic9I-66" value="" style="group" vertex="1" connectable="0" parent="1">
          <mxGeometry x="710" y="540" width="195" height="70" as="geometry" />
        </mxCell>
        <mxCell id="wH-n1kbzoVB-5Ipiic9I-2" value="" style="shape=mxgraph.cisco.switches.workgroup_switch;html=1;pointerEvents=1;dashed=0;fillColor=#036897;strokeColor=#ffffff;strokeWidth=2;verticalLabelPosition=bottom;verticalAlign=top;align=center;outlineConnect=0;" vertex="1" parent="wH-n1kbzoVB-5Ipiic9I-66">
          <mxGeometry x="94" y="20" width="101" height="50" as="geometry" />
        </mxCell>
        <mxCell id="wH-n1kbzoVB-5Ipiic9I-89" style="edgeStyle=none;rounded=0;orthogonalLoop=1;jettySize=auto;html=1;endArrow=none;endFill=0;" edge="1" parent="1" source="wH-n1kbzoVB-5Ipiic9I-67" target="wH-n1kbzoVB-5Ipiic9I-2">
          <mxGeometry relative="1" as="geometry" />
        </mxCell>
        <mxCell id="wH-n1kbzoVB-5Ipiic9I-67" value="" style="fontColor=#0066CC;verticalAlign=top;verticalLabelPosition=bottom;labelPosition=center;align=center;html=1;outlineConnect=0;fillColor=#CCCCCC;strokeColor=#6881B3;gradientColor=none;gradientDirection=north;strokeWidth=2;shape=mxgraph.networks.security_camera;" vertex="1" parent="1">
          <mxGeometry x="450" y="330" width="100" height="75" as="geometry" />
        </mxCell>
        <mxCell id="wH-n1kbzoVB-5Ipiic9I-69" style="edgeStyle=none;rounded=0;orthogonalLoop=1;jettySize=auto;html=1;endArrow=none;endFill=0;" edge="1" parent="1" source="wH-n1kbzoVB-5Ipiic9I-68" target="wH-n1kbzoVB-5Ipiic9I-2">
          <mxGeometry relative="1" as="geometry" />
        </mxCell>
        <mxCell id="wH-n1kbzoVB-5Ipiic9I-68" value="Xerox WorkCenter" style="fontColor=#0066CC;verticalAlign=top;verticalLabelPosition=bottom;labelPosition=center;align=center;html=1;outlineConnect=0;fillColor=#CCCCCC;strokeColor=#6881B3;gradientColor=none;gradientDirection=north;strokeWidth=2;shape=mxgraph.networks.copier;" vertex="1" parent="1">
          <mxGeometry x="980" y="370" width="100" height="100" as="geometry" />
        </mxCell>
        <mxCell id="wH-n1kbzoVB-5Ipiic9I-71" value="" style="fontColor=#0066CC;verticalAlign=top;verticalLabelPosition=bottom;labelPosition=center;align=center;html=1;outlineConnect=0;fillColor=#CCCCCC;strokeColor=#6881B3;gradientColor=none;gradientDirection=north;strokeWidth=2;shape=mxgraph.networks.pc;" vertex="1" parent="1">
          <mxGeometry x="1390" y="710" width="100" height="70" as="geometry" />
        </mxCell>
        <mxCell id="wH-n1kbzoVB-5Ipiic9I-73" style="edgeStyle=none;rounded=0;orthogonalLoop=1;jettySize=auto;html=1;endArrow=none;endFill=0;" edge="1" parent="1" source="wH-n1kbzoVB-5Ipiic9I-72" target="wH-n1kbzoVB-5Ipiic9I-71">
          <mxGeometry relative="1" as="geometry" />
        </mxCell>
        <mxCell id="wH-n1kbzoVB-5Ipiic9I-72" value="" style="fontColor=#0066CC;verticalAlign=top;verticalLabelPosition=bottom;labelPosition=center;align=center;html=1;outlineConnect=0;fillColor=#CCCCCC;strokeColor=#6881B3;gradientColor=none;gradientDirection=north;strokeWidth=2;shape=mxgraph.networks.phone_2;" vertex="1" parent="1">
          <mxGeometry x="1140" y="650.00375" width="100" height="90" as="geometry" />
        </mxCell>
        <mxCell id="wH-n1kbzoVB-5Ipiic9I-77" style="edgeStyle=none;rounded=0;orthogonalLoop=1;jettySize=auto;html=1;endArrow=none;endFill=0;" edge="1" parent="1" source="wH-n1kbzoVB-5Ipiic9I-74" target="wH-n1kbzoVB-5Ipiic9I-75">
          <mxGeometry relative="1" as="geometry" />
        </mxCell>
        <mxCell id="wH-n1kbzoVB-5Ipiic9I-74" value="" style="fontColor=#0066CC;verticalAlign=top;verticalLabelPosition=bottom;labelPosition=center;align=center;html=1;outlineConnect=0;fillColor=#CCCCCC;strokeColor=#6881B3;gradientColor=none;gradientDirection=north;strokeWidth=2;shape=mxgraph.networks.phone_2;" vertex="1" parent="1">
          <mxGeometry x="1010" y="990.00375" width="100" height="90" as="geometry" />
        </mxCell>
        <mxCell id="wH-n1kbzoVB-5Ipiic9I-75" value="" style="fontColor=#0066CC;verticalAlign=top;verticalLabelPosition=bottom;labelPosition=center;align=center;html=1;outlineConnect=0;fillColor=#CCCCCC;strokeColor=#6881B3;gradientColor=none;gradientDirection=north;strokeWidth=2;shape=mxgraph.networks.pc;" vertex="1" parent="1">
          <mxGeometry x="1190" y="1100" width="100" height="70" as="geometry" />
        </mxCell>
        <mxCell id="wH-n1kbzoVB-5Ipiic9I-76" style="edgeStyle=none;rounded=0;orthogonalLoop=1;jettySize=auto;html=1;endArrow=none;endFill=0;" edge="1" parent="1" source="wH-n1kbzoVB-5Ipiic9I-3" target="wH-n1kbzoVB-5Ipiic9I-74">
          <mxGeometry relative="1" as="geometry" />
        </mxCell>
        <mxCell id="wH-n1kbzoVB-5Ipiic9I-78" value="" style="fontColor=#0066CC;verticalAlign=top;verticalLabelPosition=bottom;labelPosition=center;align=center;html=1;outlineConnect=0;fillColor=#CCCCCC;strokeColor=#6881B3;gradientColor=none;gradientDirection=north;strokeWidth=2;shape=mxgraph.networks.firewall;" vertex="1" parent="1">
          <mxGeometry x="804" y="330" width="100" height="100" as="geometry" />
        </mxCell>
        <mxCell id="wH-n1kbzoVB-5Ipiic9I-80" style="edgeStyle=none;rounded=0;orthogonalLoop=1;jettySize=auto;html=1;endArrow=none;endFill=0;" edge="1" parent="1" source="wH-n1kbzoVB-5Ipiic9I-79" target="wH-n1kbzoVB-5Ipiic9I-3">
          <mxGeometry relative="1" as="geometry" />
        </mxCell>
        <mxCell id="wH-n1kbzoVB-5Ipiic9I-84" style="edgeStyle=none;rounded=0;orthogonalLoop=1;jettySize=auto;html=1;endArrow=none;endFill=0;" edge="1" parent="1" source="wH-n1kbzoVB-5Ipiic9I-81" target="wH-n1kbzoVB-5Ipiic9I-82">
          <mxGeometry relative="1" as="geometry" />
        </mxCell>
        <mxCell id="wH-n1kbzoVB-5Ipiic9I-81" value="" style="fontColor=#0066CC;verticalAlign=top;verticalLabelPosition=bottom;labelPosition=center;align=center;html=1;outlineConnect=0;fillColor=#CCCCCC;strokeColor=#6881B3;gradientColor=none;gradientDirection=north;strokeWidth=2;shape=mxgraph.networks.phone_2;" vertex="1" parent="1">
          <mxGeometry x="360" y="960.00375" width="100" height="90" as="geometry" />
        </mxCell>
        <mxCell id="wH-n1kbzoVB-5Ipiic9I-82" value="" style="fontColor=#0066CC;verticalAlign=top;verticalLabelPosition=bottom;labelPosition=center;align=center;html=1;outlineConnect=0;fillColor=#CCCCCC;strokeColor=#6881B3;gradientColor=none;gradientDirection=north;strokeWidth=2;shape=mxgraph.networks.pc;" vertex="1" parent="1">
          <mxGeometry x="210" y="1080" width="100" height="70" as="geometry" />
        </mxCell>
        <mxCell id="wH-n1kbzoVB-5Ipiic9I-83" style="edgeStyle=none;rounded=0;orthogonalLoop=1;jettySize=auto;html=1;endArrow=none;endFill=0;" edge="1" parent="1" source="wH-n1kbzoVB-5Ipiic9I-1" target="wH-n1kbzoVB-5Ipiic9I-81">
          <mxGeometry relative="1" as="geometry" />
        </mxCell>
        <mxCell id="wH-n1kbzoVB-5Ipiic9I-87" style="edgeStyle=none;rounded=0;orthogonalLoop=1;jettySize=auto;html=1;endArrow=none;endFill=0;" edge="1" parent="1" source="wH-n1kbzoVB-5Ipiic9I-85" target="wH-n1kbzoVB-5Ipiic9I-3">
          <mxGeometry relative="1" as="geometry">
            <mxPoint x="881" y="1090" as="targetPoint" />
          </mxGeometry>
        </mxCell>
        <mxCell id="wH-n1kbzoVB-5Ipiic9I-88" value="" style="group" vertex="1" connectable="0" parent="1">
          <mxGeometry x="649" y="1030" width="140" height="35" as="geometry" />
        </mxCell>
        <mxCell id="wH-n1kbzoVB-5Ipiic9I-85" value="" style="fontColor=#0066CC;verticalAlign=top;verticalLabelPosition=bottom;labelPosition=center;align=center;html=1;outlineConnect=0;fillColor=#CCCCCC;strokeColor=#6881B3;gradientColor=none;gradientDirection=north;strokeWidth=2;shape=mxgraph.networks.nas_filer;" vertex="1" parent="wH-n1kbzoVB-5Ipiic9I-88">
          <mxGeometry x="40" width="100" height="35" as="geometry" />
        </mxCell>
        <mxCell id="wH-n1kbzoVB-5Ipiic9I-86" value="NVR" style="text;html=1;resizable=0;autosize=1;align=center;verticalAlign=middle;points=[];fillColor=none;strokeColor=none;rounded=0;" vertex="1" parent="wH-n1kbzoVB-5Ipiic9I-88">
          <mxGeometry y="15" width="40" height="20" as="geometry" />
        </mxCell>
        <mxCell id="wH-n1kbzoVB-5Ipiic9I-107" style="edgeStyle=none;rounded=0;orthogonalLoop=1;jettySize=auto;html=1;endArrow=none;endFill=0;" edge="1" parent="1" source="wH-n1kbzoVB-5Ipiic9I-90" target="wH-n1kbzoVB-5Ipiic9I-85">
          <mxGeometry relative="1" as="geometry" />
        </mxCell>
        <mxCell id="wH-n1kbzoVB-5Ipiic9I-90" value="" style="fontColor=#0066CC;verticalAlign=top;verticalLabelPosition=bottom;labelPosition=center;align=center;html=1;outlineConnect=0;fillColor=#CCCCCC;strokeColor=#6881B3;gradientColor=none;gradientDirection=north;strokeWidth=2;shape=mxgraph.networks.security_camera;" vertex="1" parent="1">
          <mxGeometry x="480" y="1110" width="100" height="75" as="geometry" />
        </mxCell>
        <mxCell id="wH-n1kbzoVB-5Ipiic9I-92" style="edgeStyle=none;rounded=0;orthogonalLoop=1;jettySize=auto;html=1;endArrow=none;endFill=0;" edge="1" parent="1" source="wH-n1kbzoVB-5Ipiic9I-91" target="wH-n1kbzoVB-5Ipiic9I-85">
          <mxGeometry relative="1" as="geometry" />
        </mxCell>
        <mxCell id="wH-n1kbzoVB-5Ipiic9I-91" value="" style="fontColor=#0066CC;verticalAlign=top;verticalLabelPosition=bottom;labelPosition=center;align=center;html=1;outlineConnect=0;fillColor=#CCCCCC;strokeColor=#6881B3;gradientColor=none;gradientDirection=north;strokeWidth=2;shape=mxgraph.networks.security_camera;" vertex="1" parent="1">
          <mxGeometry x="815" y="1110" width="100" height="75" as="geometry" />
        </mxCell>
        <mxCell id="wH-n1kbzoVB-5Ipiic9I-94" style="edgeStyle=none;rounded=0;orthogonalLoop=1;jettySize=auto;html=1;endArrow=none;endFill=0;" edge="1" parent="1" source="wH-n1kbzoVB-5Ipiic9I-93" target="wH-n1kbzoVB-5Ipiic9I-85">
          <mxGeometry relative="1" as="geometry" />
        </mxCell>
        <mxCell id="wH-n1kbzoVB-5Ipiic9I-93" value="" style="fontColor=#0066CC;verticalAlign=top;verticalLabelPosition=bottom;labelPosition=center;align=center;html=1;outlineConnect=0;fillColor=#CCCCCC;strokeColor=#6881B3;gradientColor=none;gradientDirection=north;strokeWidth=2;shape=mxgraph.networks.security_camera;" vertex="1" parent="1">
          <mxGeometry x="657.5" y="1130" width="100" height="75" as="geometry" />
        </mxCell>
        <mxCell id="wH-n1kbzoVB-5Ipiic9I-97" value="" style="group" vertex="1" connectable="0" parent="1">
          <mxGeometry x="1300" y="890" width="160" height="120" as="geometry" />
        </mxCell>
        <mxCell id="wH-n1kbzoVB-5Ipiic9I-79" value="" style="fontColor=#0066CC;verticalAlign=top;verticalLabelPosition=bottom;labelPosition=center;align=center;html=1;outlineConnect=0;fillColor=#CCCCCC;strokeColor=#6881B3;gradientColor=none;gradientDirection=north;strokeWidth=2;shape=mxgraph.networks.external_storage;" vertex="1" parent="wH-n1kbzoVB-5Ipiic9I-97">
          <mxGeometry width="90" height="100" as="geometry" />
        </mxCell>
        <mxCell id="wH-n1kbzoVB-5Ipiic9I-96" value="Apple Wifi/NAS" style="text;html=1;resizable=0;autosize=1;align=center;verticalAlign=middle;points=[];fillColor=none;strokeColor=none;rounded=0;" vertex="1" parent="wH-n1kbzoVB-5Ipiic9I-97">
          <mxGeometry x="60" y="100" width="100" height="20" as="geometry" />
        </mxCell>
        <mxCell id="wH-n1kbzoVB-5Ipiic9I-99" value="" style="fontColor=#0066CC;verticalAlign=top;verticalLabelPosition=bottom;labelPosition=center;align=center;html=1;outlineConnect=0;fillColor=#CCCCCC;strokeColor=#6881B3;gradientColor=none;gradientDirection=north;strokeWidth=2;shape=mxgraph.networks.wireless_modem;" vertex="1" parent="1">
          <mxGeometry x="200" y="819" width="100" height="85" as="geometry" />
        </mxCell>
        <mxCell id="wH-n1kbzoVB-5Ipiic9I-104" style="edgeStyle=none;rounded=0;orthogonalLoop=1;jettySize=auto;html=1;endArrow=none;endFill=0;" edge="1" parent="1" source="wH-n1kbzoVB-5Ipiic9I-103" target="wH-n1kbzoVB-5Ipiic9I-1">
          <mxGeometry relative="1" as="geometry" />
        </mxCell>
        <mxCell id="wH-n1kbzoVB-5Ipiic9I-103" value="" style="fontColor=#0066CC;verticalAlign=top;verticalLabelPosition=bottom;labelPosition=center;align=center;html=1;outlineConnect=0;fillColor=#CCCCCC;strokeColor=#6881B3;gradientColor=none;gradientDirection=north;strokeWidth=2;shape=mxgraph.networks.wireless_modem;" vertex="1" parent="1">
          <mxGeometry x="240" y="638" width="100" height="85" as="geometry" />
        </mxCell>
        <mxCell id="wH-n1kbzoVB-5Ipiic9I-28" value="IEMS-SW-Radio" style="text;html=1;resizable=0;autosize=1;align=center;verticalAlign=middle;points=[];fillColor=none;strokeColor=none;rounded=0;" vertex="1" parent="1">
          <mxGeometry x="530" y="930" width="100" height="20" as="geometry" />
        </mxCell>
        <mxCell id="wH-n1kbzoVB-5Ipiic9I-106" style="edgeStyle=none;rounded=0;orthogonalLoop=1;jettySize=auto;html=1;endArrow=none;endFill=0;" edge="1" parent="1" source="wH-n1kbzoVB-5Ipiic9I-1" target="wH-n1kbzoVB-5Ipiic9I-99">
          <mxGeometry relative="1" as="geometry" />
        </mxCell>
        <mxCell id="wH-n1kbzoVB-5Ipiic9I-108" style="edgeStyle=none;rounded=0;orthogonalLoop=1;jettySize=auto;html=1;endArrow=none;endFill=0;" edge="1" parent="1" source="wH-n1kbzoVB-5Ipiic9I-13" target="wH-n1kbzoVB-5Ipiic9I-51">
          <mxGeometry relative="1" as="geometry" />
        </mxCell>
        <mxCell id="wH-n1kbzoVB-5Ipiic9I-109" value="SIP Trunk&lt;br&gt;787-793-1777" style="text;html=1;resizable=0;autosize=1;align=center;verticalAlign=middle;points=[];fillColor=none;strokeColor=none;rounded=0;rotation=60;" vertex="1" parent="1">
          <mxGeometry x="1150" y="300" width="90" height="30" as="geometry" />
        </mxCell>
        <mxCell id="wH-n1kbzoVB-5Ipiic9I-26" value="IEMS-SW-Central" style="text;html=1;resizable=0;autosize=1;align=center;verticalAlign=middle;points=[];fillColor=none;strokeColor=none;rounded=0;" vertex="1" parent="1">
          <mxGeometry x="690" y="610" width="110" height="20" as="geometry" />
        </mxCell>
        <mxCell id="wH-n1kbzoVB-5Ipiic9I-110" value="pfSense&lt;br&gt;Appliance" style="text;html=1;resizable=0;autosize=1;align=center;verticalAlign=middle;points=[];fillColor=none;strokeColor=none;rounded=0;" vertex="1" parent="1">
          <mxGeometry x="790" y="430" width="70" height="30" as="geometry" />
        </mxCell>
      </root>
    </mxGraphModel>
  </diagram>
</mxfile>
